<?xml version="1.0" encoding="UTF-8" standalone="no"?>
<!-- Created with Inkscape (http://www.inkscape.org/) -->

<svg
   xmlns:osb="http://www.openswatchbook.org/uri/2009/osb"
   xmlns:dc="http://purl.org/dc/elements/1.1/"
   xmlns:cc="http://creativecommons.org/ns#"
   xmlns:rdf="http://www.w3.org/1999/02/22-rdf-syntax-ns#"
   xmlns:svg="http://www.w3.org/2000/svg"
   xmlns="http://www.w3.org/2000/svg"
   xmlns:sodipodi="http://sodipodi.sourceforge.net/DTD/sodipodi-0.dtd"
   xmlns:inkscape="http://www.inkscape.org/namespaces/inkscape"
   width="104.00415mm"
   height="79.295563mm"
   viewBox="0 0 104.00415 79.295563"
   version="1.1"
   id="svg8"
   inkscape:version="0.92.3 (2405546, 2018-03-11)"
   sodipodi:docname="splitting.svg">
  <defs
     id="defs2">
    <linearGradient
       id="linearGradient2396"
       osb:paint="solid">
      <stop
         style="stop-color:#000000;stop-opacity:1;"
         offset="0"
         id="stop2394" />
    </linearGradient>
  </defs>
  <sodipodi:namedview
     id="base"
     pagecolor="#ffffff"
     bordercolor="#666666"
     borderopacity="1.0"
     inkscape:pageopacity="0.0"
     inkscape:pageshadow="2"
     inkscape:zoom="2.8"
     inkscape:cx="204.01031"
     inkscape:cy="146.90262"
     inkscape:document-units="mm"
     inkscape:current-layer="layer1"
     showgrid="false"
     inkscape:window-width="1920"
     inkscape:window-height="1023"
     inkscape:window-x="0"
     inkscape:window-y="0"
     inkscape:window-maximized="1"
     fit-margin-top="0"
     fit-margin-left="0"
     fit-margin-right="0"
     fit-margin-bottom="0" />
  <metadata
     id="metadata5">
    <rdf:RDF>
      <cc:Work
         rdf:about="">
        <dc:format>image/svg+xml</dc:format>
        <dc:type
           rdf:resource="http://purl.org/dc/dcmitype/StillImage" />
        <dc:title></dc:title>
      </cc:Work>
    </rdf:RDF>
  </metadata>
  <g
     inkscape:label="Layer 1"
     inkscape:groupmode="layer"
     id="layer1"
     transform="translate(-3.2187698,-6.6639835)">
    <path
       style="fill:none;stroke:#000000;stroke-width:0.26458332px;stroke-linecap:butt;stroke-linejoin:miter;stroke-opacity:1"
       d="M 3.690749,18.21843 C 2.677337,16.59819 6.435647,6.7366999 19.749849,6.8421199 c 9.790798,0.0775 10.083346,3.9796201 16.547778,4.0845501 6.780235,0.11006 9.117727,-4.1248901 18.614373,-4.1303901 9.41214,-0.005 10.68761,3.9582301 17.50616,3.8860501 7.41846,-0.0785 9.08348,-5.6836701 23.38609,-2.9696201 7.78955,1.47815 17.78319,12.2099501 5.5735,19.3256201 -12.72759,7.41749 -20.59198,-0.083 -29.76139,-0.0486 -7.67242,0.0288 -8.60911,4.1331 -17.48995,4.02919 -8.820595,-0.1032 -11.684408,-4.87553 -17.56151,-4.64873 -5.322365,0.20539 -7.664812,3.4683 -17.571007,4.07504 C 9.803937,31.0081 1.552502,25.53994 3.690749,18.21846 Z"
       id="path833"
       inkscape:connector-curvature="0"
       sodipodi:nodetypes="cssssssssssc" />
    <path
       style="fill:none;stroke:#000000;stroke-width:0.26458332px;stroke-linecap:butt;stroke-linejoin:miter;stroke-opacity:1"
       d="m 12.377007,17.67442 c 4.142679,5.07811 13.229843,4.67721 16.83798,-0.53454"
       id="path854"
       inkscape:connector-curvature="0"
       sodipodi:nodetypes="cc" />
    <path
       style="fill:none;stroke:#000000;stroke-width:0.26458332px;stroke-linecap:butt;stroke-linejoin:miter;stroke-opacity:1"
       d="m 13.379268,18.67668 c 5.245166,-3.52462 8.652854,-3.79189 14.365738,0.0501"
       id="path856"
       inkscape:connector-curvature="0"
       sodipodi:nodetypes="cc" />
    <path
       style="fill:none;stroke:#000000;stroke-width:0.26458332px;stroke-linecap:butt;stroke-linejoin:miter;stroke-opacity:1"
       d="m 46.00645,17.9722 c 4.142679,5.07811 13.22984,4.67721 16.83798,-0.53454"
       id="path854-3"
       inkscape:connector-curvature="0"
       sodipodi:nodetypes="cc" />
    <path
       style="fill:none;stroke:#000000;stroke-width:0.26458332px;stroke-linecap:butt;stroke-linejoin:miter;stroke-opacity:1"
       d="m 47.008711,18.97446 c 5.245166,-3.52462 8.652859,-3.79189 14.365739,0.0501"
       id="path856-6"
       inkscape:connector-curvature="0"
       sodipodi:nodetypes="cc" />
    <path
       style="fill:none;stroke:#000000;stroke-width:0.26458332px;stroke-linecap:butt;stroke-linejoin:miter;stroke-opacity:1"
       d="m 79.87887,17.69822 c 4.14268,5.07811 13.22984,4.67721 16.83798,-0.53454"
       id="path854-7"
       inkscape:connector-curvature="0"
       sodipodi:nodetypes="cc" />
    <path
       style="fill:none;stroke:#000000;stroke-width:0.26458332px;stroke-linecap:butt;stroke-linejoin:miter;stroke-opacity:1"
       d="m 80.88113,18.70048 c 5.24516,-3.52462 8.65285,-3.79189 14.36574,0.0501"
       id="path856-5"
       inkscape:connector-curvature="0"
       sodipodi:nodetypes="cc" />
    <path
       style="fill:none;stroke:#000000;stroke-width:0.26458332px;stroke-linecap:butt;stroke-linejoin:miter;stroke-opacity:1"
       d="m 11.224214,48.963898 c 4.142679,5.07811 13.22984,4.67721 16.83798,-0.53454"
       id="path854-3-3"
       inkscape:connector-curvature="0"
       sodipodi:nodetypes="cc" />
    <path
       style="fill:none;stroke:#000000;stroke-width:0.26458332px;stroke-linecap:butt;stroke-linejoin:miter;stroke-opacity:1"
       d="m 12.226475,49.966158 c 5.245166,-3.52462 8.652859,-3.79189 14.365739,0.0501"
       id="path856-6-5"
       inkscape:connector-curvature="0"
       sodipodi:nodetypes="cc" />
    <path
       style="fill:none;stroke:#000000;stroke-width:0.26458332px;stroke-linecap:butt;stroke-linejoin:miter;stroke-opacity:1"
       d="m 45.096635,48.689918 c 4.14268,5.07811 13.22984,4.67721 16.83798,-0.53454"
       id="path854-7-6"
       inkscape:connector-curvature="0"
       sodipodi:nodetypes="cc" />
    <path
       style="fill:none;stroke:#000000;stroke-width:0.26458332px;stroke-linecap:butt;stroke-linejoin:miter;stroke-opacity:1"
       d="m 46.098895,49.692178 c 5.24516,-3.52462 8.65285,-3.79189 14.36574,0.0501"
       id="path856-5-2"
       inkscape:connector-curvature="0"
       sodipodi:nodetypes="cc" />
    <path
       style="fill:none;stroke:#000000;stroke-width:0.26458332px;stroke-linecap:butt;stroke-linejoin:miter;stroke-opacity:1"
       d="m 4.2522312,49.520088 c 0.661459,8.78794 8.5044658,10.20537 13.4181548,10.29986 6.825893,0.13126 12.721033,-4.38596 18.142856,-4.15775 6.505607,0.27383 8.005573,2.17346 17.481403,3.4018 5.10268,0.66145 16.0597,-2.85192 15.59151,-10.01638 -0.37775,-5.78073 -10.03363,-9.59553 -17.95386,-8.88244 -7.66017,0.68966 -10.814949,8.00139 -25.607892,1.88988 -9.170655,-3.78873 -15.4809658,-0.62292 -17.6703868,0.85044 -2.793062,1.87958 -3.883938,6.97621 -3.401785,6.61459 z"
       id="path908"
       inkscape:connector-curvature="0"
       sodipodi:nodetypes="csssssssc" />
    <path
       style="fill:none;stroke:#000000;stroke-width:0.26458332px;stroke-linecap:butt;stroke-linejoin:miter;stroke-opacity:1"
       d="m 14.179125,75.247875 c 4.142679,5.07811 13.229839,4.67721 16.837979,-0.53454"
       id="path854-7-6-9"
       inkscape:connector-curvature="0"
       sodipodi:nodetypes="cc" />
    <path
       style="fill:none;stroke:#000000;stroke-width:0.26458332px;stroke-linecap:butt;stroke-linejoin:miter;stroke-opacity:1"
       d="m 15.181385,76.250135 c 5.245159,-3.52462 8.65285,-3.79189 14.365739,0.0501"
       id="path856-5-2-1"
       inkscape:connector-curvature="0"
       sodipodi:nodetypes="cc" />
    <ellipse
       style="fill:none;stroke-width:0.26458332"
       id="path928"
       cx="18.966169"
       cy="79.41526"
       rx="12.050936"
       ry="4.7019272" />
    <ellipse
       style="fill:none;stroke-width:0.26458332"
       id="path930"
       cx="27.679258"
       cy="72.151665"
       rx="12.497876"
       ry="4.0984674" />
    <ellipse
       style="fill:none;stroke:#000000;stroke-width:0.32776293;stroke-miterlimit:4;stroke-dasharray:none;stroke-opacity:1"
       id="path932"
       cx="22.637522"
       cy="76.522377"
       rx="17.255665"
       ry="9.2732887" />
  </g>
</svg>
